<svg t="1574221063431" class="icon" viewBox="0 0 1024 1024" version="1.1" xmlns="http://www.w3.org/2000/svg" p-id="2023" width="200" height="200"><path d="M426.78827 983.525388h-5.145729v-35.789695h-42.548264v35.789695h-5.068926v-72.731418h5.068926v32.256806h42.548264v-32.256806h5.145729zM490.841071 956.337508a30.720768 30.720768 0 0 1-6.451361 20.659717 22.195755 22.195755 0 0 1-17.741244 7.680192 23.040576 23.040576 0 0 1-12.518713-3.456086 21.965349 21.965349 0 0 1-8.294607-9.830646 35.943299 35.943299 0 0 1-2.841671-14.822771 30.720768 30.720768 0 0 1 6.451361-20.659716 22.118953 22.118953 0 0 1 17.58764-7.680192 21.734943 21.734943 0 0 1 17.510838 7.680192 30.720768 30.720768 0 0 1 6.297757 20.42931z m-42.701868 0a27.495087 27.495087 0 0 0 4.915323 17.357234 18.509263 18.509263 0 0 0 27.725494 0 27.571889 27.571889 0 0 0 4.915322-17.357234 27.111078 27.111078 0 0 0-4.915322-17.357233 16.81962 16.81962 0 0 0-13.901148-6.144154 16.589215 16.589215 0 0 0-13.824346 6.144154 27.495087 27.495087 0 0 0-4.915323 17.357233zM510.118353 929.303233v35.021675a17.126828 17.126828 0 0 0 3.456086 11.827496 13.824346 13.824346 0 0 0 10.675467 3.686492 18.586065 18.586065 0 0 0 14.131554-4.454511 23.040576 23.040576 0 0 0 4.531313-15.897998V929.303233h4.915323v53.761344h-4.147304l-0.921623-7.680192a21.19733 21.19733 0 0 1-19.046876 8.448211q-18.432461 0-18.432461-19.738094V929.303233zM599.515788 969.393835a12.902723 12.902723 0 0 1-5.529738 11.21308 26.957474 26.957474 0 0 1-15.360384 3.916898 37.325733 37.325733 0 0 1-17.20363-3.302482v-5.299333a38.40096 38.40096 0 0 0 17.20363 4.070502 23.040576 23.040576 0 0 0 12.134703-2.688067 8.064202 8.064202 0 0 0 4.147304-7.065777 8.601815 8.601815 0 0 0-3.302483-6.835371 36.557714 36.557714 0 0 0-10.905873-5.452936 62.363159 62.363159 0 0 1-11.366684-5.068927 15.360384 15.360384 0 0 1-4.915323-4.761719 11.904298 11.904298 0 0 1-1.689642-6.528163 11.059476 11.059476 0 0 1 5.068927-9.60024 24.80702 24.80702 0 0 1 14.285157-3.532889 42.701868 42.701868 0 0 1 16.589215 3.302483l-1.843246 4.454511a38.938573 38.938573 0 0 0-14.745969-3.302482 21.350934 21.350934 0 0 0-10.521863 2.227256 6.681767 6.681767 0 0 0-3.916898 6.067351 8.371409 8.371409 0 0 0 2.995275 6.758569 41.857046 41.857046 0 0 0 11.750694 5.683342 57.908648 57.908648 0 0 1 10.675467 4.761719 15.360384 15.360384 0 0 1 4.992124 4.761719 11.673892 11.673892 0 0 1 1.459237 6.220956zM635.228681 984.447011a23.578189 23.578189 0 0 1-18.355659-7.296182 29.18473 29.18473 0 0 1-6.604965-20.352509 31.719193 31.719193 0 0 1 6.374559-20.736518 21.043726 21.043726 0 0 1 17.126828-7.680192 18.509263 18.509263 0 0 1 15.360384 6.681767 27.495087 27.495087 0 0 1 5.529738 18.125253v3.9937h-39.168979a25.575039 25.575039 0 0 0 5.222531 17.050026 18.278857 18.278857 0 0 0 14.592365 5.836946 45.313133 45.313133 0 0 0 8.141003-0.614416 49.61404 49.61404 0 0 0 8.909023-2.764869v4.454512a39.783395 39.783395 0 0 1-8.448211 2.688067 47.002775 47.002775 0 0 1-8.678617 0.614415z m-1.459237-51.764494a16.205205 16.205205 0 0 0-12.518713 5.145729 24.269407 24.269407 0 0 0-5.529738 14.82277h33.408835a23.578189 23.578189 0 0 0-4.070502-14.669166 13.440336 13.440336 0 0 0-11.21308-5.222531zM710.571364 261.971349a18.432461 18.432461 0 0 1 8.448211-15.360384 67.969699 67.969699 0 0 0 8.294608-5.990549c0.768019-0.921623 0.768019-0.998425 0.844821-1.99685s0-1.536038-2.688067-3.532889a64.360009 64.360009 0 0 1-10.291458-7.680192 16.896422 16.896422 0 0 1-4.608115-11.673892 18.432461 18.432461 0 0 1 8.448211-15.360384 67.508888 67.508888 0 0 0 8.294608-5.990549 2.534463 2.534463 0 0 0 0.844821-1.99685c0-1.228831 0-1.536038-2.688067-3.532889a64.206405 64.206405 0 0 1-10.291458-7.680192 16.896422 16.896422 0 0 1-4.608115-11.673891 18.432461 18.432461 0 0 1 8.448211-15.360384 69.121728 69.121728 0 0 0 8.294608-5.99055c0.768019-0.921623 0.768019-0.998425 0.844821-1.99685s0-1.536038-2.688067-3.532888a63.438386 63.438386 0 0 1-10.291458-7.680192 16.896422 16.896422 0 0 1-4.608115-11.673892 18.432461 18.432461 0 0 1 8.448211-15.360384 69.121728 69.121728 0 0 0 8.294608-5.99055c0.768019-0.921623 0.768019-0.998425 0.844821-1.99685a7.142579 7.142579 0 0 1 14.285157 0 18.509263 18.509263 0 0 1-8.448211 15.360384 70.196955 70.196955 0 0 0-8.294607 5.99055c-0.768019 0.921623-0.768019 0.998425-0.844822 1.99685s0 1.459236 2.688068 3.532888a63.59199 63.59199 0 0 1 10.291457 7.680192 16.973224 16.973224 0 0 1 4.608115 11.673892 18.509263 18.509263 0 0 1-8.448211 15.360384 70.196955 70.196955 0 0 0-8.294607 5.99055c-0.768019 0.921623-0.768019 0.998425-0.844822 1.99685s0 1.536038 2.688068 3.532888a64.513613 64.513613 0 0 1 10.291457 7.680192 16.973224 16.973224 0 0 1 4.608115 11.673892 18.509263 18.509263 0 0 1-8.448211 15.360384 71.656191 71.656191 0 0 0-8.294607 5.990549c-0.768019 0.921623-0.768019 0.998425-0.844822 1.99685s0 1.536038 2.688068 3.532889a64.667217 64.667217 0 0 1 10.291457 7.680192 16.973224 16.973224 0 0 1 4.608115 11.673892 18.509263 18.509263 0 0 1-8.448211 15.360384 71.502588 71.502588 0 0 0-8.294607 5.990549c-0.768019 0.921623-0.768019 0.998425-0.844822 1.99685a7.142579 7.142579 0 1 1-14.285157 0zM763.487887 829.460737H260.512113a33.716043 33.716043 0 0 1-33.869647-29.645542 50.766069 50.766069 0 0 1 0-5.836946 51.303683 51.303683 0 0 1 0-5.836945 33.639241 33.639241 0 0 1 33.869647-29.645542H307.20768a7.142579 7.142579 0 0 1 0 14.285158h-46.695567a19.354084 19.354084 0 0 0-19.738094 17.050026 35.021676 35.021676 0 0 0 0 8.294607 19.354084 19.354084 0 0 0 19.738094 17.050026h502.975774a19.354084 19.354084 0 0 0 19.738094-17.050026 35.252081 35.252081 0 0 0 0-8.371409 19.354084 19.354084 0 0 0-19.738094-17.050026H458.430661a7.142579 7.142579 0 1 1 0-14.285158h305.057226a33.716043 33.716043 0 0 1 33.946449 29.645542 50.305258 50.305258 0 0 1 0 5.836946 48.231606 48.231606 0 0 1 0 5.836945 33.716043 33.716043 0 0 1-33.946449 29.722344z" fill="#262626" p-id="2024"></path><path d="M221.573539 829.460737a7.142579 7.142579 0 1 1 0-14.285158h580.852922a7.142579 7.142579 0 1 1 0 14.285158zM540.378309 716.177904a21.734943 21.734943 0 0 1-21.734943-21.734943V547.290482a21.734943 21.734943 0 0 1 21.734943-21.734943h147.920498a21.811745 21.811745 0 0 1 21.811746 21.734943v147.152479a21.734943 21.734943 0 0 1-21.734944 21.734943v-14.285157a7.680192 7.680192 0 0 0 7.680192-7.680192V547.290482a7.680192 7.680192 0 0 0-7.680192-7.680192H540.378309a7.680192 7.680192 0 0 0-7.680192 7.680192v147.152479a7.680192 7.680192 0 0 0 7.680192 7.680192h147.920498v14.285157z" fill="#262626" p-id="2025"></path><path d="M547.060077 663.875797a7.142579 7.142579 0 0 1 0-10.137854l99.842496-99.842496a7.142579 7.142579 0 1 1 10.137853 10.137854l-99.842496 99.842496a7.142579 7.142579 0 0 1-10.137853 0zM547.060077 612.80252a7.142579 7.142579 0 0 1 0-10.137853l48.769219-48.76922a7.142579 7.142579 0 0 1 10.137853 10.061052l-48.769219 48.769219a7.142579 7.142579 0 0 1-10.061052 0zM625.244431 687.837996a7.142579 7.142579 0 0 1 0-10.137853l46.081152-46.081153a7.142579 7.142579 0 0 1 10.061052 10.061052l-46.081152 46.081152a7.142579 7.142579 0 0 1-10.137854 0zM574.171154 687.837996a7.142579 7.142579 0 0 1 0-10.137853l97.384835-97.384835a7.142579 7.142579 0 0 1 10.061051 10.061051L584.232206 687.837996a7.142579 7.142579 0 0 1-10.061052 0zM307.20768 829.460737v-7.142579 7.142579a7.142579 7.142579 0 0 1-7.142578-7.142579V547.290482A21.734943 21.734943 0 0 1 322.568064 525.478737h121.19343a21.811745 21.811745 0 0 1 21.734943 21.734943v275.334884a7.142579 7.142579 0 0 1-7.142578 7.142578z m143.696393-14.285158V547.290482a7.680192 7.680192 0 0 0-7.680192-7.680192H322.568064a7.680192 7.680192 0 0 0-7.680192 7.680192v268.115503z" fill="#262626" p-id="2026"></path><path d="M422.79457 689.911648a7.142579 7.142579 0 0 1 0-14.285157H437.770944a7.142579 7.142579 0 0 1 0 14.285157zM451.288082 765.791945a7.142579 7.142579 0 0 1 7.142579-7.142579h305.057226a19.354084 19.354084 0 0 0 19.891697-17.050026 35.252081 35.252081 0 0 0 0-8.371409 19.354084 19.354084 0 0 0-19.738093-17.050027H458.430661a7.142579 7.142579 0 1 1 0-14.285157h305.057226a33.716043 33.716043 0 0 1 33.946449 29.645541 50.535663 50.535663 0 0 1 0 5.836946 48.154804 48.154804 0 0 1 0 5.836946 33.716043 33.716043 0 0 1-33.946449 29.645541H458.430661a7.142579 7.142579 0 0 1-7.142579-7.065776zM226.642466 743.288982a50.612465 50.612465 0 0 1 0-5.836946 49.537238 49.537238 0 0 1 0-5.836946 33.639241 33.639241 0 0 1 33.869647-29.645541H307.20768a7.142579 7.142579 0 0 1 0 14.285157h-46.695567a19.354084 19.354084 0 0 0-19.738094 17.050027 36.327308 36.327308 0 0 0 0 8.371409 19.354084 19.354084 0 0 0 19.738094 17.050026H307.20768a7.142579 7.142579 0 0 1 0 14.285157h-46.695567a33.716043 33.716043 0 0 1-33.869647-29.722343zM458.430661 659.498087a7.142579 7.142579 0 1 1 0-14.285157h67.355284a7.142579 7.142579 0 0 1 0 14.285157z" fill="#262626" p-id="2027"></path><path d="M763.487887 716.177904H458.430661a7.142579 7.142579 0 1 1 0-14.285157h305.057226a19.354084 19.354084 0 0 0 19.891697-17.050026 35.712893 35.712893 0 0 0 0-4.147304 35.252081 35.252081 0 0 0 0-4.147303 19.354084 19.354084 0 0 0-19.738093-17.050027h-60.750319a7.142579 7.142579 0 0 1 0-14.285157h60.596715a33.716043 33.716043 0 0 1 33.946449 29.645541 50.305258 50.305258 0 0 1 0 5.836946 48.078002 48.078002 0 0 1 0 5.836946 33.716043 33.716043 0 0 1-33.946449 29.645541zM226.642466 686.532363a50.766069 50.766069 0 0 1 0-5.836946 49.460437 49.460437 0 0 1 0-5.836946A33.639241 33.639241 0 0 1 260.512113 645.136128H307.20768a7.142579 7.142579 0 0 1 0 14.285158h-46.695567a19.354084 19.354084 0 0 0-19.738094 17.050026 36.173704 36.173704 0 0 0 0 8.294607 19.354084 19.354084 0 0 0 19.738094 17.050026H307.20768a7.142579 7.142579 0 0 1 0 14.285158h-46.695567a33.716043 33.716043 0 0 1-33.869647-29.56874zM458.430661 602.741469a7.142579 7.142579 0 1 1 0-14.285158h67.355284a7.142579 7.142579 0 0 1 0 14.285158z" fill="#262626" p-id="2028"></path><path d="M695.748594 652.355509a7.142579 7.142579 0 0 1 7.142578-7.142579h60.596715a19.354084 19.354084 0 0 0 19.891697-17.050026 35.252081 35.252081 0 0 0 0-8.371409 19.354084 19.354084 0 0 0-19.738093-17.050026h-60.750319a7.142579 7.142579 0 0 1 0-14.285158h60.596715a33.716043 33.716043 0 0 1 33.946449 29.645542 50.458861 50.458861 0 0 1 0 5.836945 48.154804 48.154804 0 0 1 0 5.836946 33.716043 33.716043 0 0 1-33.946449 29.645542h-60.596715a7.142579 7.142579 0 0 1-7.142578-7.065777zM451.288082 652.355509a7.142579 7.142579 0 0 1 7.142579-7.142579h67.355284a7.142579 7.142579 0 1 1 0 14.285157h-67.355284a7.142579 7.142579 0 0 1-7.142579-7.142578zM226.642466 629.775744a50.612465 50.612465 0 0 1 0-5.836946 49.460437 49.460437 0 0 1 0-5.836945 33.639241 33.639241 0 0 1 33.869647-29.645542H307.20768a7.142579 7.142579 0 0 1 0 14.285158h-46.695567a19.354084 19.354084 0 0 0-19.738094 17.050026 36.250506 36.250506 0 0 0 0 8.371409A19.354084 19.354084 0 0 0 260.512113 645.136128H307.20768a7.142579 7.142579 0 0 1 0 14.285158h-46.695567A33.716043 33.716043 0 0 1 226.642466 629.775744zM455.742594 546.061652a7.142579 7.142579 0 1 1 0-14.285158h72.654616a7.142579 7.142579 0 1 1 0 14.285158z" fill="#262626" p-id="2029"></path><path d="M763.487887 602.741469h-60.596715a7.142579 7.142579 0 0 1 0-14.285158h60.596715A19.354084 19.354084 0 0 0 783.379584 571.406285a35.098477 35.098477 0 0 0 0-8.294607 19.354084 19.354084 0 0 0-19.738093-17.050026h-63.361584a7.142579 7.142579 0 1 1 0-14.285158h63.20798a33.716043 33.716043 0 0 1 33.946449 29.645542 50.305258 50.305258 0 0 1 0 5.836945 48.078002 48.078002 0 0 1 0 5.836946 33.716043 33.716043 0 0 1-33.946449 29.645542zM451.288082 595.59889a7.142579 7.142579 0 0 1 7.142579-7.142579h67.355284a7.142579 7.142579 0 1 1 0 14.285158h-67.355284a7.142579 7.142579 0 0 1-7.142579-7.142579zM226.642466 573.095927a50.689267 50.689267 0 0 1 0-11.673891 33.639241 33.639241 0 0 1 33.869647-29.645542h49.690842a7.142579 7.142579 0 0 1 0 14.285158h-49.690842a19.354084 19.354084 0 0 0-19.738094 17.050026 33.639241 33.639241 0 0 0 0 4.147303 37.095327 37.095327 0 0 0 0 4.147304 19.354084 19.354084 0 0 0 19.738094 17.050026H307.20768a7.142579 7.142579 0 1 1 0 14.285158h-46.695567a33.716043 33.716043 0 0 1-33.869647-29.645542zM745.823446 411.658291V302.753169a7.142579 7.142579 0 0 0-7.142579-7.142579H668.176704a7.142579 7.142579 0 0 0-7.142578 7.142579v36.711318a7.142579 7.142579 0 0 1-14.285157 0v-36.711318A21.427736 21.427736 0 0 1 668.176704 281.325433h70.273757A21.427736 21.427736 0 0 1 760.339008 302.753169V411.658291a7.142579 7.142579 0 0 1-14.285157 0z" fill="#262626" p-id="2030"></path><path d="M624.937223 404.592515a45.236331 45.236331 0 0 1-11.136278-9.677042 45.082727 45.082727 0 0 1-11.059476 9.677042 80.642016 80.642016 0 0 1-79.643592 0 45.082727 45.082727 0 0 1-11.059476-9.677042 45.005925 45.005925 0 0 1-11.136278 9.677042 80.642016 80.642016 0 0 1-79.643592 0 44.852321 44.852321 0 0 1-11.059476-9.677042A45.005925 45.005925 0 0 1 399.369984 404.592515 75.496287 75.496287 0 0 1 359.279382 414.730368c-25.882247 0-48.692417-10.752269-56.142204-29.261531a7.142579 7.142579 0 1 1 13.363535-5.068927c3.225681 9.753844 20.736518 20.198905 42.855471 20.045301A61.441536 61.441536 0 0 0 391.689792 392.534613a20.966924 20.966924 0 0 0 11.59709-16.666016 7.142579 7.142579 0 0 1 7.142579-7.142579 7.142579 7.142579 0 0 1 7.142578 7.142579 20.966924 20.966924 0 0 0 11.59709 16.666016 66.433661 66.433661 0 0 0 64.360009 0 20.966924 20.966924 0 0 0 11.59709-16.666016 7.142579 7.142579 0 0 1 7.142579-7.142579 7.142579 7.142579 0 0 1 7.142578 7.142579 20.890122 20.890122 0 0 0 11.59709 16.666016 66.433661 66.433661 0 0 0 64.360009 0A20.890122 20.890122 0 0 0 606.735168 375.791795a7.142579 7.142579 0 0 1 7.142579-7.142579 7.142579 7.142579 0 0 1 7.142579 7.142579 20.890122 20.890122 0 0 0 11.597089 16.666016 61.441536 61.441536 0 0 0 32.180005 8.294608c22.118953 0 39.629791-10.291457 42.855471-20.045301a7.142579 7.142579 0 0 1 13.363534 5.068926c-7.680192 18.509263-30.259956 29.031126-56.219005 29.261532a75.496287 75.496287 0 0 1-39.860197-10.445061zM523.097877 323.643291a45.005925 45.005925 0 0 1-11.059476-9.677042 45.005925 45.005925 0 0 1-11.136278 9.677042A75.342684 75.342684 0 0 1 460.81152 334.165154c-23.040576 0-42.932273-8.371409-52.839721-23.040576a7.142579 7.142579 0 1 1 11.827496-7.680192c5.529738 8.678617 21.658141 16.589215 41.012225 16.512413a61.441536 61.441536 0 0 0 32.180005-8.294607 20.966924 20.966924 0 0 0 11.59709-16.666017 7.142579 7.142579 0 0 1 7.142578-7.142579 7.142579 7.142579 0 0 1 7.142579 7.142579 20.966924 20.966924 0 0 0 11.59709 16.666017 61.441536 61.441536 0 0 0 32.180004 8.294607c19.430886 0 35.636091-7.680192 41.089027-16.666017a7.142579 7.142579 0 1 1 11.9811 7.680192c-9.830646 14.669167-30.029551 23.040576-53.070127 23.040576a75.419485 75.419485 0 0 1-39.552989-10.368259zM680.772219 267.117078c0-1.689642-0.38401-2.227256-3.22568-4.531313a69.966549 69.966549 0 0 1-11.213081-8.525013 17.818045 17.818045 0 0 1-4.915323-12.36511 19.661292 19.661292 0 0 1 9.062627-15.974799 74.651466 74.651466 0 0 0 9.21623-6.681767 3.532888 3.532888 0 0 0 1.152029-2.688067c0-1.689642-0.38401-2.227256-3.22568-4.531314a69.889747 69.889747 0 0 1-11.213081-8.448211 17.894847 17.894847 0 0 1-4.915323-12.365109 19.661292 19.661292 0 0 1 9.062627-15.974799 75.649891 75.649891 0 0 0 9.21623-6.681767 3.532888 3.532888 0 0 0 1.152029-2.688067c0-1.689642-0.38401-2.227256-3.22568-4.531314a71.886597 71.886597 0 0 1-11.213081-8.525013 17.894847 17.894847 0 0 1-4.915323-12.365109 7.142579 7.142579 0 1 1 14.285157 0c0 1.689642 0.38401 2.227256 3.225681 4.531313A70.734568 70.734568 0 0 1 690.142054 153.60384a17.818045 17.818045 0 0 1 4.915322 12.365109 19.58449 19.58449 0 0 1-9.062626 15.9748 74.651466 74.651466 0 0 0-9.216231 6.681767 3.532888 3.532888 0 0 0-1.152028 2.688067c0 1.689642 0.38401 2.227256 3.22568 4.531313a70.504163 70.504163 0 0 1 11.213081 8.448211 17.818045 17.818045 0 0 1 4.915323 12.365109 19.58449 19.58449 0 0 1-9.062627 15.9748 74.267457 74.267457 0 0 0-9.21623 6.681767 3.456086 3.456086 0 0 0-1.152029 2.688067c0 1.689642 0.38401 2.227256 3.22568 4.531313a69.966549 69.966549 0 0 1 11.213081 8.448212 17.894847 17.894847 0 0 1 4.915323 12.365109 7.142579 7.142579 0 1 1-14.285158 0z" fill="#262626" p-id="2031"></path><path d="M821.780545 453.131328a7.142579 7.142579 0 0 1 2.918472 6.451362 36.480912 36.480912 0 0 1-19.354083 26.80387 76.341109 76.341109 0 0 1-38.40096 9.753844 75.496287 75.496287 0 0 1-39.783395-10.521864 44.621916 44.621916 0 0 1-11.520288-9.446636 44.929123 44.929123 0 0 1-11.136278 9.677042 80.488412 80.488412 0 0 1-79.643591 0A44.775519 44.775519 0 0 1 613.800945 476.171904a44.852321 44.852321 0 0 1-11.059476 9.677042 80.565214 80.565214 0 0 1-79.643592 0A44.698717 44.698717 0 0 1 512.038401 476.171904a44.929123 44.929123 0 0 1-11.136278 9.677042 80.565214 80.565214 0 0 1-79.643592 0A44.929123 44.929123 0 0 1 410.199055 476.171904 44.775519 44.775519 0 0 1 399.369984 485.541739a80.565214 80.565214 0 0 1-79.643591 0A44.852321 44.852321 0 0 1 308.359709 476.171904a44.929123 44.929123 0 0 1-11.059476 9.677042 75.342684 75.342684 0 0 1-39.783395 10.521863 76.264307 76.264307 0 0 1-38.40096-9.753844A36.557714 36.557714 0 0 1 199.684992 459.429086a7.142579 7.142579 0 0 1 2.918473-6.451362l305.21083-223.263181a7.142579 7.142579 0 0 1 8.448212 0z m-100.917723-1.305632a7.142579 7.142579 0 0 1 2.073651 5.068926 20.966924 20.966924 0 0 0 11.59709 16.666017 61.441536 61.441536 0 0 0 32.180005 8.294607 62.132753 62.132753 0 0 0 31.258381-7.680192 26.035851 26.035851 0 0 0 11.520288-12.211505L512.038401 244.306908 214.661367 461.733143a26.112653 26.112653 0 0 0 11.520288 12.211506 62.132753 62.132753 0 0 0 31.258381 7.680192 61.441536 61.441536 0 0 0 32.180005-8.294608 20.890122 20.890122 0 0 0 11.597089-16.666016 7.142579 7.142579 0 0 1 7.142579-7.142579 7.142579 7.142579 0 0 1 7.142579 7.142579 20.966924 20.966924 0 0 0 11.597089 16.666016 66.510463 66.510463 0 0 0 64.360009 0 20.890122 20.890122 0 0 0 11.59709-16.666016 7.142579 7.142579 0 0 1 12.211506-5.068927 7.142579 7.142579 0 0 1 2.073652 5.068927 20.890122 20.890122 0 0 0 11.597089 16.666016 66.510463 66.510463 0 0 0 64.360009 0 20.890122 20.890122 0 0 0 11.59709-16.666016 7.142579 7.142579 0 0 1 7.142579-7.142579 7.142579 7.142579 0 0 1 7.142579 7.142579 20.966924 20.966924 0 0 0 11.597089 16.666016 66.510463 66.510463 0 0 0 64.360009 0A20.966924 20.966924 0 0 0 606.735168 456.741019a7.142579 7.142579 0 0 1 12.211506-5.068927 7.142579 7.142579 0 0 1 2.073652 5.068927 20.890122 20.890122 0 0 0 11.597089 16.666016 66.510463 66.510463 0 0 0 64.360009 0 20.890122 20.890122 0 0 0 11.59709-16.666016 7.142579 7.142579 0 0 1 12.211506-5.068927z" fill="#262626" p-id="2032"></path><path d="M763.487887 546.061652h-63.20798a7.142579 7.142579 0 1 1 0-14.285158h63.20798A19.354084 19.354084 0 0 0 783.379584 514.572864a35.252081 35.252081 0 0 0 0-8.371409 18.970074 18.970074 0 0 0-7.680192-12.979524 7.142579 7.142579 0 1 1 8.678617-11.366685 33.255231 33.255231 0 0 1 12.825921 22.656567 50.458861 50.458861 0 0 1 0 5.836946 48.154804 48.154804 0 0 1 0 5.836946 33.716043 33.716043 0 0 1-33.716043 29.875947zM455.742594 546.061652a7.142579 7.142579 0 1 1 0-14.285158h72.654616a7.142579 7.142579 0 1 1 0 14.285158zM226.642466 516.339308a50.842871 50.842871 0 0 1 0-5.836945 49.844446 49.844446 0 0 1 0-5.836946 33.255231 33.255231 0 0 1 12.825921-22.656567 7.142579 7.142579 0 0 1 8.678617 11.366684 18.970074 18.970074 0 0 0-7.680192 12.979525 36.173704 36.173704 0 0 0 0 8.294607 19.354084 19.354084 0 0 0 19.738093 17.050026h49.690842a7.142579 7.142579 0 0 1 0 14.285158h-49.383634a33.716043 33.716043 0 0 1-33.869647-29.645542z" fill="#262626" p-id="2033"></path></svg>