<svg t="1574231524173" class="icon" viewBox="0 0 1024 1024" version="1.1" xmlns="http://www.w3.org/2000/svg" p-id="8791" width="200" height="200"><path d="M670.677667 279.969925a278.234342 278.234342 0 0 0-278.234342-279.696809 198.895509 198.895509 0 0 0-20.840155 0H0.136558v1023.726884h141.128063V557.473034h229.607316a140.39683 140.39683 0 0 0 21.571388 0 278.234342 278.234342 0 0 0 278.234342-277.503109z m-299.80573 133.815729H141.264621V146.519813h229.607316a140.39683 140.39683 0 0 1 128.331477 131.622028 141.859297 141.859297 0 0 1-128.331477 135.643813z" fill="#515A6E" p-id="8792"></path><path d="M1014.357407 772.45568a75.682666 75.682666 0 0 0-16.81837-19.377688l-50.455111-137.837512a70.929648 70.929648 0 0 0-55.208129-39.852225h-265.803373a69.832798 69.832798 0 0 0-54.842511 39.852225l-50.820728 137.837512a84.091851 84.091851 0 0 0-16.81837 19.377688c-4.387401 9.140419-9.140419 17.183987-9.140419 78.241983s11.699736 80.801301 25.593172 88.113636l11.334119 6.215484v55.573745c0 17.91522 4.021784 23.033855 20.840155 23.033855h36.561674c16.81837 0 27.786873 0 27.786873-17.91522v-54.842512h282.621743v54.842512c0 18.280837 11.334119 17.91522 27.786873 17.91522h36.561674c16.81837 0 21.205771-5.118634 21.205771-23.033855v-55.573745l10.968503-6.215484c14.259053-7.312335 25.958789-28.518106 25.958789-88.113636s-2.924934-69.101565-7.312335-78.241983z m-426.309124-36.561675c1.828084-8.043568 16.087137-69.101565 22.302621-90.307335a47.530177 47.530177 0 0 1 38.755375-27.786873h219.370047a47.16456 47.16456 0 0 1 38.389758 27.786873c6.215485 21.205771 20.474538 82.263767 22.668238 90.307335s-5.849868 8.409185-5.849868 8.409186h-329.05507s-9.506035 1.828084-6.581101-7.312335z m5.484251 149.537249a41.314692 41.314692 0 1 1 40.217842-41.314692 40.949075 40.949075 0 0 1-40.217842 42.411542z m332.345621 0a41.314692 41.314692 0 1 1 40.583458-41.314692 40.949075 40.949075 0 0 1-40.583458 42.411542z" fill="#515A6E" p-id="8793"></path></svg>