<svg t="1574231551464" class="icon" viewBox="0 0 1024 1024" version="1.1" xmlns="http://www.w3.org/2000/svg" p-id="9556" width="200" height="200"><path d="M118.3 198.4L247 327l88-88-128.7-128.7 19.5-19.5 221-50.1 148.1 148.1-63.2 198.5L946.6 814 825.2 953 405.8 530.8l-211.3 58.4L46.4 441l44.8-215.5z" p-id="9557"></path><path d="M447.4 785.3L245.8 983.7l-144-137.6 201.6-198.4M775.3 370L405.8 746.9l-57.2-57.2 369.5-376.9-8.2-8.2-72.7-72.7 238.3-154 143.7 143.7L866 460.7l-85.9-85.9-4.8-4.8z" p-id="9558"></path></svg>