<svg t="1574221197471" class="icon" viewBox="0 0 1024 1024" version="1.1" xmlns="http://www.w3.org/2000/svg" p-id="2507" width="200" height="200"><path d="M384.922918 99.712615l-112 193.98969 498.830633 288L883.753551 387.712615 384.922918 99.712615z m16-27.712813l498.830633 288c15.305267 8.8365 20.549313 28.407546 11.712813 43.712813l-112 193.98969c-8.8365 15.305267-28.407546 20.549313-43.712813 11.712813L256.922918 321.415118c-15.305267-8.8365-20.549313-28.407546-11.712812-43.712813L357.210106 83.712615c8.8365-15.305267 28.407546-20.549313 43.712812-11.712813zM322.912609 655.117621l-128 221.702504 83.138439 48L406.051048 703.117621l-83.138439-48z m16-27.712812l83.138439 48c15.305267 8.8365 20.549313 28.407546 11.712813 43.712812l-128 221.702504c-8.8365 15.305267-28.407546 20.549313-43.712813 11.712813l-83.138439-48c-15.305267-8.8365-20.549313-28.407546-11.712813-43.712813L295.199796 639.117621c8.8365-15.305267 28.407546-20.549313 43.712813-11.712812z" fill="#333333" p-id="2508"></path><path d="M323.066512 174.851053l-16 27.712813L251.640886 170.563866c-7.653066-4.4185-17.437906-1.79666-21.856406 5.856407l-88 152.420471c-4.4185 7.653066-1.79666 17.437906 5.856406 21.856406l277.128129 160c22.958333 13.255 30.824219 42.610886 17.56922 65.56922l-56 96.994845-27.712813-16L414.625422 560.26637c4.4185-7.653066 1.79666-17.437906-5.856407-21.856407L131.640886 378.409963c-22.958333-13.255-30.824219-42.610886-17.569219-65.569219L202.071667 160.420273c13.255-22.958333 42.610886-30.824219 65.569219-17.56922l55.425626 32z" fill="#333333" p-id="2509"></path><path d="M517.408992 226.702004m13.856407 8l55.425625 32q13.856406 8 5.856407 21.856406l0 0q-8 13.856406-21.856407 5.856407l-55.425625-32q-13.856406-8-5.856407-21.856407l0 0q8-13.856406 21.856407-5.856406Z" fill="#333333" p-id="2510"></path><path d="M643.848701 299.702004m13.856407 8l138.564064 80q13.856406 8 5.856407 21.856406l0 0q-8 13.856406-21.856407 5.856407l-138.564064-80q-13.856406-8-5.856407-21.856407l0 0q8-13.856406 21.856407-5.856406Z" fill="#333333" p-id="2511"></path></svg>