<svg t="1574221276147" class="icon" viewBox="0 0 1418 1024" version="1.1" xmlns="http://www.w3.org/2000/svg" p-id="3333" width="200" height="200"><path d="M1387.735165 1023.76671 1068.773755 1023.76671 352.985875 1023.76671 345.807718 1023.76671 293.084154 1023.76671 29.95086 1023.76671C14.966458 1023.76671 0 1008.746416 0 993.726122 0 978.705829 7.483229 963.685535 22.467632 963.685535L74.868178 963.685535 74.868178 425.090463C74.868178 372.510462 119.785496 327.449581 172.203989 327.449581L274.044092 327.449581C289.028495 327.449581 303.994953 342.469875 303.994953 357.490169 303.994953 372.510462 289.028495 387.548701 274.044092 387.548701L172.203989 387.548701C157.219586 387.548701 142.253128 402.568995 142.253128 417.589289L142.253128 956.166415 345.807718 956.166415 345.807718 963.362518 352.985875 963.362518 352.985875 98.340752C352.985875 45.491571 397.903193 0.179454 450.30374 0.179454L971.437945 0.179454C1023.838491 0.179454 1068.773755 45.491571 1068.773755 98.340752L1068.773755 955.807508 1275.432898 955.807508 1275.432898 414.4309C1275.432898 399.320879 1260.46644 384.228804 1245.482037 384.228804L1143.641933 384.228804C1128.65753 384.228804 1113.691073 369.118783 1113.691073 354.026708 1113.691073 338.916687 1128.65753 323.824612 1143.641933 323.824612L1245.482037 323.824612C1297.900529 323.824612 1342.817847 369.118783 1342.817847 421.98591L1342.817847 963.362518 1395.218394 963.362518C1410.202797 963.362518 1417.686026 978.454593 1417.686026 993.564614 1417.686026 1008.674635 1402.719568 1023.76671 1387.735165 1023.76671ZM1008.872034 98.340752C1008.872034 83.230731 993.887631 68.138656 978.921173 68.138656L450.30374 68.138656C435.337282 68.138656 420.352879 83.230731 420.352879 98.340752L420.352879 963.362518 1008.872034 963.362518 1008.872034 98.340752ZM556.881427 262.074515 857.089902 262.074515C874.245698 262.074515 891.401493 279.19442 891.401493 296.296379 891.401493 313.416284 874.245698 330.536189 857.089902 330.536189L556.881427 330.536189C539.707686 330.536189 522.569836 313.416284 522.569836 296.296379 522.569836 279.19442 539.707686 262.074515 556.881427 262.074515ZM556.881427 473.471242 857.089902 473.471242C874.245698 473.471242 891.401493 490.591146 891.401493 507.693106 891.401493 524.81301 874.245698 541.91497 857.089902 541.91497L556.881427 541.91497C539.707686 541.91497 522.569836 524.81301 522.569836 507.693106 522.569836 490.591146 539.707686 473.471242 556.881427 473.471242ZM556.881427 695.958221 857.089902 695.958221C874.245698 695.958221 891.401493 721.620132 891.401493 738.740037 891.401493 755.841996 874.245698 772.961901 857.089902 772.961901L556.881427 772.961901C531.147734 772.961901 522.569836 747.282044 522.569836 730.180085 522.569836 713.06018 539.707686 695.958221 556.881427 695.958221Z" p-id="3334"></path></svg>