<svg t="1574221395332" class="icon" viewBox="0 0 1024 1024" version="1.1" xmlns="http://www.w3.org/2000/svg" p-id="4101" width="200" height="200"><path d="M64.232727 389.957818c27.089455-25.134545 34.940121-32.426667 37.236364-35.157333l69.290667-58.895515L489.534061 11.201939l-1.768728 0.744728c2.265212-1.086061 2.265212-1.086061 2.482425-1.303273l0.248242-0.217212 0.558545-0.496485a4.468364 4.468364 0 0 1 0.806788-0.620606l0.589576-0.496485a440.537212 440.537212 0 0 0 0.837818-0.620606l0.496485-0.248242a14.677333 14.677333 0 0 1 0.186182-0.155152c0.341333-0.093091 0.341333-0.093091 1.427394-0.868848l0.99297-0.310303c0.465455-0.217212 0.496485-0.217212 1.179151-0.806788a1.830788 1.830788 0 0 1-0.775757 0.124121l1.08606-0.403394 1.706667-2.482424c-0.310303 1.489455-0.403394 1.706667-1.086061 2.265212a33.512727 33.512727 0 0 1 14.180849-2.07903h0.372363l0.341334 0.03103 1.179151 0.093091 0.558546 0.03103a4.530424 4.530424 0 0 0 0.589575 0.093091l1.086061 0.186182h0.186182l0.837818 0.124121-0.310303-0.03103c0.124121 0.062061 0.124121 0.062061 1.086061 0.186181h-0.186182l0.527515 0.217213 1.179151 0.217212c-0.248242 0-0.403394-0.062061-0.310303-0.062061 0.248242 0.155152 0.248242 0.155152 0.217212 0.093091 0.186182 0.124121 0.248242 0.155152 0.93091 0.310303l0 0 0.558545 0.093091-0.496485-0.062061c0.217212 0.155152 0.465455 0.248242 1.148121 0.434425l0.093091 0.06206c-0.279273 0-0.217212 0 0.062061 0.124121a7.354182 7.354182 0 0 0 0.341333 0.186182l0.310303 0.217212c0.651636 0.217212 0.837818 0.310303 1.055031 0.310303-0.620606-0.093091-0.589576-0.062061-0.186182 0.124122l0.217212 0.093091c2.637576 1.365333 4.933818 2.947879 6.919757 4.747636l307.2 274.649212 4.840728-2.265212V245.387636c0-18.059636 14.273939-32.705939 31.837091-32.705939 17.563152 0 31.806061 14.646303 31.80606 32.705939v100.072728l87.474424 79.623757c13.34303 11.791515 14.770424 32.457697 3.196122 46.08-6.206061 7.261091-14.894545 11.264-24.079515 11.264-7.633455 0-15.080727-2.792727-20.883394-7.974788L512.062061 80.709818h-3.847758L68.018424 474.422303a31.185455 31.185455 0 0 1-44.931879-3.258182 33.388606 33.388606 0 0 1 3.196122-46.08 13630.805333 13630.805333 0 0 0 37.546666-34.753939l0.434425-0.372364z" p-id="4102"></path><path d="M880.702061 485.003636c16.197818 0 29.323636 13.529212 29.323636 30.192485v354.831515c0 81.95103-58.150788 148.386909-129.396364 148.386909H239.957333c-71.245576 0-129.396364-66.404848-129.396363-148.386909V515.196121c0-16.663273 13.125818-30.192485 29.292606-30.192485 16.197818 0 29.354667 13.529212 29.354666 30.192485v354.831515c0 47.631515 32.054303 88.219152 70.749091 88.219152H780.598303c38.694788 0 70.749091-40.587636 70.749091-88.219152V515.196121c0-16.663273 13.156848-30.192485 29.323636-30.192485z" p-id="4103"></path><path d="M436.534303 715.248485l27.865212 28.982303-33.916121 35.281454-27.803152-28.920242h-4.18909l-18.990546 19.766303v4.251152l27.834182 28.951272-33.916121 35.281455-63.798303-66.342788 155.554909-161.792 0.403394-3.723636c-12.722424-21.131636-18.587152-45.552485-18.587152-74.68994 0-77.482667 58.461091-138.302061 132.933818-138.30206s132.933818 60.819394 132.933819 138.30206c0 77.451636-58.492121 138.27103-132.933819 138.27103-28.609939 0-52.565333-7.881697-77.172363-24.917333l-3.723637 0.372364-62.49503 65.008485v4.251151z m143.36-270.770424c-47.786667 0-84.402424 38.105212-84.402424 87.815757 0 49.679515 36.615758 87.784727 84.402424 87.784727 47.848727 0 84.464485-38.105212 84.464485-87.815757 0-48.717576-38.415515-87.784727-84.433455-87.784727z" p-id="4104"></path></svg>