<svg t="1574231301157" class="icon" viewBox="0 0 1024 1024" version="1.1" xmlns="http://www.w3.org/2000/svg" p-id="5724" width="200" height="200"><path d="M828.775871 307.152c0 88.95-38.572 186.182-103.22 260.096 0 0.094-62 81.64-71.42 151.74 9.182 0.464 16.566 7.82 16.566 16.988v235.288c0 9.494-7.81 17.128-17.464 17.128h-57.788l-38.902 31.698c-3.078 2.512-7.052 3.91-11.122 3.91h-67.538c-4.07 0-7.998-1.398-11.074-3.91l-38.95-31.698H378.877871c-9.654 0-17.462-7.634-17.462-17.128V735.976c0-9.496 7.808-17.128 17.462-17.128h0.71c-10.838-69.54-80.93-150.11-81.686-150.948-0.71-0.838-1.374-1.676-1.894-2.652C232.447871 491.566 194.537871 395.356 194.537871 307.152 194.537871 137.772 336.801871 0 511.633871 0c174.876 0 317.142 137.774 317.142 307.152zM618.877871 718.848c8.992-80.71 76.528-169.146 79.558-173.15 59.112-67.676 95.46-158.766 95.46-238.546 0-150.388-126.6-272.802-282.262-272.802-155.566 0-282.168 122.414-282.168 272.802 0 79.966 36.44 171.194 95.08 238.08 0.664 0.886 1.326 1.77 1.894 2.7 13.156 15.454 79.132 96.21 88.456 170.916h79.32V482.86c-6.956 2.56-14.576 3.91-22.764 3.91-25.7 0-54.19-13.452-76.292-36.026-37.532-38.308-44.82-89.18-16.754-115.76 27.12-25.646 81.024-15.824 116.946 20.946 6.484 6.61 11.644 13.592 16.328 20.714 4.64-7.122 9.844-14.104 16.28-20.714 35.924-36.77 89.924-46.592 116.948-20.946 28.112 26.58 20.778 77.452-16.706 115.76-22.102 22.574-50.64 36.026-76.34 36.026-8.188 0-15.808-1.35-22.764-3.956v236.032h89.78zM487.921871 446.976c11.784-11.126 7.43-41.566-17.7-67.212-15.382-15.78-35.024-25.554-51.16-25.554-7.054 0-12.59 1.862-16.472 5.54-11.784 11.124-7.43 41.564 17.7 67.21 22.102 22.576 54.806 32.118 67.632 20.016z m65.17-67.212c-25.084 25.646-29.484 56.086-17.7 67.212 12.684 12.1 45.53 2.56 67.632-20.016 25.13-25.646 29.484-56.086 17.7-67.21-3.88-3.678-9.42-5.54-16.424-5.54-16.186 0-35.78 9.774-51.208 25.554z" fill="#515151" p-id="5725"></path></svg>