<svg t="1574231357653" class="icon" viewBox="0 0 1024 1024" version="1.1" xmlns="http://www.w3.org/2000/svg" p-id="7274" width="200" height="200"><path d="M512 7.168C232.96 7.168 7.168 232.96 7.168 512s226.304 504.832 504.832 504.832 504.832-226.304 504.832-504.832S791.04 7.168 512 7.168z m103.424 830.976c66.56-129.024 17.408-302.592-97.792-382.976 7.68 34.816-2.048 124.416-52.736 181.248 11.264-58.368-17.408-95.744-17.408-95.744s-9.728 53.248-46.08 106.496c-33.28 48.64-56.832 100.864-12.8 191.488-138.752-77.824-175.104-152.064-154.624-252.928 15.36-74.24 72.192-135.168 77.312-209.408 21.504 38.912 24.064 67.584 26.624 108.544 68.608-83.968 139.776-196.096 124.416-299.008 0 0 130.048 40.96 182.272 239.616 30.72-27.648 28.16-84.48 12.8-118.272 45.568 33.792 310.784 331.776-41.984 530.944z" fill="" p-id="7275"></path></svg>