<svg t="1574231459247" class="icon" viewBox="0 0 1024 1024" version="1.1" xmlns="http://www.w3.org/2000/svg" p-id="8024" width="200" height="200"><path d="M915.56 462.65h-97.77v-294a27.5 27.5 0 0 0-55 0v294H261.21v-294a27.5 27.5 0 0 0-55 0v294h-97.77a44.15 44.15 0 0 0-44.1 44.1v332a44.15 44.15 0 0 0 44.1 44.1h807.12a44.15 44.15 0 0 0 44.1-44.1v-332a44.15 44.15 0 0 0-44.1-44.1z m-10.9 365.22H119.35V517.65h785.3z" p-id="8025"></path><path d="M260.07 731a58.21 58.21 0 1 0-58.21-58.21A58.28 58.28 0 0 0 260.07 731z m0-61.42a3.21 3.21 0 1 1-3.21 3.21 3.21 3.21 0 0 1 3.21-3.24zM394.43 731a58.21 58.21 0 1 0-58.21-58.21A58.28 58.28 0 0 0 394.43 731z m0-61.42a3.21 3.21 0 1 1-3.21 3.21 3.21 3.21 0 0 1 3.21-3.24zM528.79 731a58.21 58.21 0 1 0-58.21-58.21A58.28 58.28 0 0 0 528.79 731z m0-61.42a3.21 3.21 0 1 1-3.21 3.21 3.21 3.21 0 0 1 3.21-3.24z" p-id="8026"></path></svg>