<svg t="1569162720223" class="icon" viewBox="0 0 1024 1024" version="1.1" xmlns="http://www.w3.org/2000/svg" p-id="7120" width="200" height="200"><path d="M601.338776 909.061224H422.661224c-43.885714 0-79.412245-35.526531-79.412244-79.412244v-138.971429c0-5.22449-4.702041-9.926531-9.926531-9.926531H194.35102c-43.885714 0-79.412245-35.526531-79.412244-79.412244V422.661224c0-43.885714 35.526531-79.412245 79.412244-79.412244h138.971429c5.22449 0 9.926531-4.702041 9.926531-9.926531V194.35102c0-43.885714 35.526531-79.412245 79.412244-79.412244h178.677552c43.885714 0 79.412245 35.526531 79.412244 79.412244v138.971429c0 5.22449 4.702041 9.926531 9.926531 9.926531h138.971429c43.885714 0 79.412245 35.526531 79.412244 79.412244v178.677552c0 43.885714-35.526531 79.412245-79.412244 79.412244h-138.971429c-5.22449 0-9.926531 4.702041-9.926531 9.926531v138.971429c0 43.885714-35.526531 79.412245-79.412244 79.412244z" fill="#E5404F" p-id="7121"></path></svg>