<svg t="1569208468277" class="icon" viewBox="0 0 1024 1024" version="1.1" xmlns="http://www.w3.org/2000/svg" p-id="2006" width="200" height="200"><path d="M602.453 381.952c-0.341-42.325-17.408-82.603-47.445-112.299s-70.997-46.08-112.981-45.738H215.723v579.242H297.3V538.624h144.726c42.325 0.341 82.944-16.043 112.981-45.739s47.104-69.973 47.445-112.298v1.365z m-173.056 76.459H296.96V305.493h132.096c40.277 3.072 71.68 35.158 74.07 75.435-2.049 40.619-33.11 73.387-73.729 77.483z m371.371 204.117c-2.73-4.096-5.803-8.192-9.557-11.264l-29.014-78.165c-6.144-12.288-18.09-20.822-31.744-22.528H577.536c-13.653 1.706-25.6 9.898-31.744 22.528l-29.013 78.165c-3.755 3.072-7.168 6.827-9.558 11.264-2.389 5.12-5.461 9.557-5.461 44.373s6.485 45.739 14.677 50.859l6.486 3.413v31.744c0 10.24 0 13.312 12.288 13.312h21.845c9.557 0 16.384 0 16.384-10.24v-31.402h162.816v30.72c0 10.24 6.485 10.24 16.384 10.24h21.845c9.558 0 12.288-3.072 12.288-13.312V760.49l6.486-3.414c8.192-4.096 14.677-16.384 14.677-50.858 0-34.816-3.072-39.254-5.461-44.374l-1.707 0.683zM542.72 646.144c0-5.12 10.581-43.69 14.336-57.003 4.437-9.898 13.995-16.725 24.917-17.749H724.31c10.923 1.024 20.48 7.85 24.918 17.75 4.096 13.311 13.312 50.858 14.336 57.002 1.024 6.144-3.414 5.461-3.414 5.461H546.133s-5.461 0-3.413-5.461z m15.36 77.141c-7.85 0.342-15.019-4.437-18.432-11.605-3.072-7.168-1.707-15.701 3.755-21.163 5.461-5.802 13.994-7.509 21.162-4.437 7.168 3.072 11.947 9.899 11.947 18.09-0.341 10.24-8.533 18.433-18.773 18.433v0.682z m125.952 10.582h-61.099v-10.24h61.099v10.24z m0-20.48h-61.099v-10.24h61.099v10.24z m0-20.48h-61.099v-10.24h61.099v10.24z m65.877 30.378c-7.85 0.342-15.018-4.437-18.432-11.605-3.072-7.168-1.706-15.701 3.755-21.163 5.461-5.802 13.995-7.509 21.163-4.437 7.168 3.072 11.946 9.899 11.946 18.09 0.342 10.24-8.192 18.774-18.432 19.115z m0 0" p-id="2007" fill="#1296db"></path><path d="M944.128 4.096H77.141c-20.138 0-39.594 8.192-53.93 22.528C8.875 40.96 0.683 60.416 0.683 80.554v866.987c0 20.139 8.192 39.595 22.528 53.931C37.547 1015.808 57.003 1024 77.14 1024h866.987c42.325 0 76.459-34.133 76.459-76.459V80.555c0-42.326-34.134-76.459-76.459-76.459z m0 892.587c0 13.653-5.461 26.624-15.019 36.181-9.557 9.557-22.528 15.019-36.181 15.019H128c-13.653 0-26.624-5.462-36.181-15.019-9.558-9.557-15.019-22.528-15.019-36.181v-765.27c0-28.33 22.87-50.858 50.859-50.858h764.928c13.653 0 26.624 5.461 36.181 15.018 9.557 9.558 15.019 22.528 15.019 36.182v764.928z m0 0" p-id="2008" fill="#1296db"></path></svg>