<svg t="1569208599154" class="icon" viewBox="0 0 1024 1024" version="1.1" xmlns="http://www.w3.org/2000/svg" p-id="2793" width="200" height="200"><path d="M962.016 940.992h-0.256l-896-6.688a32 32 0 0 1-31.776-32V204.992a32 32 0 0 1 64 0v665.568l864.256 6.432a32 32 0 0 1-0.224 64z" fill="#1296db" p-id="2794"></path><path d="M483.264 708.992v135.008h-82.496V456.736h133.248c96.352 0 144.512 40.832 144.512 122.496 0 39.68-14.528 71.456-43.616 95.36-29.088 23.936-65.472 35.36-109.12 34.368h-42.528z m0-188.256v124.992h35.744c48.512 0 72.736-21.056 72.736-63.264 0-41.152-24-61.76-72-61.76h-36.48zM667.008 420a31.872 31.872 0 0 1-16.16-4.384L437.44 290.752 226.336 406.08a32 32 0 0 1-30.688-56.16l227.008-124a32 32 0 0 1 31.488 0.448l207.552 121.44L898.24 108.48a32 32 0 0 1 45.504 45.024l-254.016 256.992a31.872 31.872 0 0 1-22.72 9.504z" fill="#1296db" p-id="2795"></path><path d="M935.968 328.992a32 32 0 0 1-31.84-29.28l-12.384-144.96-141.92 8.192a32 32 0 1 1-3.712-63.904l172.992-10.016a32.192 32.192 0 0 1 33.728 29.248l15.008 176a32 32 0 0 1-31.872 34.72z" fill="#1296db" p-id="2796"></path></svg>