<svg t="1569208678924" class="icon" viewBox="0 0 1251 1024" version="1.1" xmlns="http://www.w3.org/2000/svg" p-id="3798" width="200" height="200"><path d="M1203.996444 614.4l-0.227555-6.769778-1.422222-18.773333c-12.458667-114.744889-91.591111-210.944-197.632-240.64-9.671111-77.539556-54.613333-149.162667-127.260445-202.126222-73.955556-53.930667-170.097778-83.626667-270.734222-83.626667-100.693333 0-196.835556 29.696-270.734222 83.626667-72.533333 52.906667-117.589333 124.586667-127.203556 202.069333C102.741333 377.912889 23.552 474.112 11.150222 588.913778l-0.568889 5.745778c-0.284444 3.413333-0.568889 6.826667-0.739555 10.183111l-0.113778 2.844444a263.566222 263.566222 0 0 0-0.170667 4.380445l-0.056889 2.275555-0.113777 6.826667v138.069333c0 41.528889 32.199111 75.377778 71.736889 75.377778h64.170666c17.863111 80.327111 86.812444 138.069333 165.888 138.069333h1.934222c79.075556 0 147.968-57.742222 165.831112-138.069333h257.649777c17.863111 80.327111 86.812444 138.069333 165.888 138.069333h1.934223c79.018667 0 147.968-57.742222 165.831111-138.069333h62.065777c39.594667 0 71.736889-33.848889 71.736889-75.377778v-138.126222l-0.056889-6.712889z m-299.576888 82.147556c51.029333 0 92.558222 43.576889 92.558222 97.223111 0 2.161778-0.113778 4.380444-0.227556 6.542222a78.506667 78.506667 0 0 0-3.697778 12.970667c-8.590222 44.487111-46.307556 77.141333-89.486222 77.710222-50.517333-0.568889-91.648-44.145778-91.648-97.28 0-53.589333 41.528889-97.166222 92.501334-97.166222z m-591.303112 0c51.029333 0 92.558222 43.576889 92.558223 97.223111 0 2.161778-0.113778 4.380444-0.227556 6.542222-1.592889 4.209778-2.844444 8.533333-3.697778 12.970667-8.590222 44.487111-46.307556 77.141333-89.486222 77.710222-50.517333-0.568889-91.648-44.145778-91.648-97.28 0-53.589333 41.528889-97.166222 92.501333-97.166222z m813.169778-75.377778v131.697778h-56.035555c-17.863111-80.270222-86.812444-138.069333-165.831111-138.069334s-147.911111 57.742222-165.774223 138.069334H478.947556c-17.863111-80.270222-86.812444-138.069333-165.831112-138.069334s-147.911111 57.742222-165.774222 138.069334H87.153778V621.226667v-4.778667l0.113778-1.763556c0-1.706667 0.113778-3.413333 0.227555-5.12l0.398222-6.257777c7.224889-84.366222 64.967111-155.079111 143.758223-175.957334a68.266667 68.266667 0 0 0 8.931555-3.015111c12.401778-2.616889 25.031111-3.982222 37.660445-3.982222H935.253333c12.629333 0 25.315556 1.365333 37.603556 3.982222 2.958222 1.194667 5.916444 2.275556 8.931555 3.015111 78.791111 20.878222 136.533333 91.591111 143.758223 175.957334l0.682666 13.141333 0.056889 4.778667z m-482.702222-282.510222v-192.853334c139.719111 11.889778 255.488 91.761778 280.348444 192.853334h-280.348444zM565.816889 146.147556v192.512H289.564444c24.632889-101.262222 136.419556-179.313778 276.252445-192.512z" fill="#1296db" p-id="3799"></path></svg>