<svg t="1569208741188" class="icon" viewBox="0 0 1024 1024" version="1.1" xmlns="http://www.w3.org/2000/svg" p-id="4043" width="200" height="200"><path d="M604.6 390h53.6c7.2 0 14.1-6.3 13.7-13.7-0.3-7.4-6-13.7-13.7-13.7h-39.9v-36.8-7.3c0-7.2-6.3-14.1-13.7-13.7-7.4 0.3-13.7 6-13.7 13.7v57.8c-0.1 7.4 6.2 13.7 13.7 13.7zM288.5 581.4c-2.2-0.4-3.6 0-5.1 0-6.5 0-11.6 4.7-11.6 10.9v43.8c0 12.3 10.2 22.1 22.9 22.1h69.7c5.8-0.4 10.5-5.1 10.5-10.9 0-3.3 0.4-6.9-1.1-9.8-17-32-49.2-53.1-85.3-56.1zM741 581.4c-1.5 0-3.3-0.4-5.1 0-36.1 3.5-68 24.7-85.3 56.5-1.4 3.3-1.1 6.2-1.1 9.4 0 5.4 4.4 10.1 10.2 10.9h69.7c12.7 0 22.9-10.1 22.9-22.1v-43.8c0-6.2-5.1-11.2-11.3-10.9z" fill="#1296db" p-id="4044"></path><path d="M513.5 63.5c-247.4 0-448 200.6-448 448s200.6 448 448 448 448-200.6 448-448-200.6-448-448-448z m101.6 191.9c57 0 103.3 46.2 103.3 103.3 0 57-46.2 103.3-103.3 103.3-57 0-103.3-46.2-103.3-103.3 0-57.1 46.2-103.3 103.3-103.3z m165.5 445.1c0 17-14.7 31-32.4 31h-41.9c-14 0-25.9-8.9-30.3-20.8-2.4-8.2-5.8-13.6-11.6-17.3-37.5 4.1-91.3 6.8-151.6 6.8s-114.2-2.7-151.6-6.8c-5.8 3.7-9.5 8.5-11.6 17.3-4.4 12.3-16.4 20.8-30.3 20.8h-42.9c-18.1 0-32.4-14-32.4-31V566.2c0-33.7 17-63.6 42.9-82.3 0-79.9 67.1-144.6 150.3-144.6h33.1c11.9 0 21.5 9.5 21.5 20.8 0 11.6-9.5 20.8-21.5 20.8h-31c-54.5 0-98.5 42.2-98.5 94.6v8.5c0 5.4 77 10.2 171.7 10.2 94.7 0 172.8-4.4 172.8-10.2 2.1-5.8 8.2-10.2 15-10.2h21.5c6.8 0 12.3 4.1 16 10.2 25.9 19 42.9 49 42.9 82.7v133.8z" fill="#1296db" p-id="4045"></path></svg>