<svg t="1569208892066" class="icon" viewBox="0 0 1024 1024" version="1.1" xmlns="http://www.w3.org/2000/svg" p-id="4896" width="200" height="200"><path d="M970.752 333.824a20.48 20.48 0 0 0-12.288 26.624c16.384 49.152 24.576 100.352 24.576 151.552 0 260.096-210.944 471.04-471.04 471.04-260.096 0-471.04-210.944-471.04-471.04C40.96 251.904 251.904 40.96 512 40.96c12.288 0 20.48-8.192 20.48-20.48S524.288 0 512 0C229.376 0 0 229.376 0 512c0 282.624 229.376 512 512 512 282.624 0 512-229.376 512-512 0-57.344-8.192-112.64-26.624-163.84-4.096-12.288-16.384-16.384-26.624-14.336z" p-id="4897" fill="#1296db"></path><path d="M809.506133 323.549867a20.138667 20.138667 0 0 0 28.8768 0 19.490133 19.490133 0 0 0 0-28.501334l-111.377066-109.8752h276.3776A20.548267 20.548267 0 0 0 1024 164.829867c0-10.171733-10.308267-20.343467-20.616533-20.343467H729.088l111.342933-109.909333a19.490133 19.490133 0 0 0 0-28.4672 20.138667 20.138667 0 0 0-28.8768 0l-146.432 144.4864a21.845333 21.845333 0 0 0-6.144 14.2336c0 6.109867 2.048 10.171733 6.144 14.2336l144.384 144.4864z m-433.117866-14.2336a20.138667 20.138667 0 0 0-28.8768 0 19.490133 19.490133 0 0 0 0 28.4672l131.9936 130.2528h-115.473067c-10.308267 0-20.650667 10.171733-20.650667 20.343466s10.3424 20.343467 20.650667 20.343467h123.733333v101.717333h-123.733333c-10.308267 0-20.650667 10.205867-20.650667 20.3776s10.3424 20.343467 20.650667 20.343467h123.733333v142.4384c0 10.171733 10.308267 20.343467 20.616534 20.343467s20.616533-10.171733 20.616533-20.343467v-142.4384h123.767467c10.308267 0 20.616533-10.171733 20.616533-20.343467s-10.308267-20.343467-20.616533-20.343466h-123.767467v-101.751467h123.767467c10.308267 0 20.616533-10.171733 20.616533-20.343467s-10.308267-20.343467-20.616533-20.343466H539.306667l131.9936-130.2528a19.490133 19.490133 0 0 0 0-28.4672 20.138667 20.138667 0 0 0-28.8768 0l-134.075734 130.218666-131.9936-130.218666z" p-id="4898" fill="#1296db"></path></svg>