<svg t="1569208944472" class="icon" viewBox="0 0 1024 1024" version="1.1" xmlns="http://www.w3.org/2000/svg" p-id="5698" width="200" height="200"><path d="M985.4 544.4c-3-3-7.1-4.7-11.3-4.7h-57.3c-2.6 0-5.2 0.7-7.5 2.1l-25.8-78.6c-8.3-44.7-39.5-66.3-77.7-66.3H562.7c-44 0-70.7 28.9-77.7 66.2L459 542c-2.4-1.5-5.1-2.2-7.9-2.3h-57.4c-4.3 0-8.3 1.7-11.3 4.7s-4.7 7.1-4.6 11.4v14c0 8.9 7.1 16.1 16 16.1l21.7 3.7c-6.9 13.5-10.8 29-10.8 47l-8 92.8c0 2.7 0.2 5.5 0.5 8.2-0.3 1.7-0.5 3.5-0.5 5.2v111.6c0 7.6 3 14.9 8.3 20.3 5.3 5.4 12.6 8.4 20.2 8.5h43.5c7.6 0 14.9-3.1 20.2-8.5 5.3-5.4 8.3-12.7 8.3-20.3v-35.9h374v35.9c0 7.6 3 14.9 8.3 20.3 5.3 5.4 12.6 8.4 20.2 8.5h43.5c7.6 0 14.9-3.1 20.2-8.5 5.3-5.4 8.3-12.7 8.3-20.3V742.9c0-1.8-0.2-3.5-0.5-5.2 0.3-2.7 0.5-5.5 0.5-8.2l-8.1-92.8c0-18.1-3.9-33.5-10.8-47.1l21.3-3.6c8.9 0 16-7.3 15.9-16.1v-14c0-4.3-1.6-8.4-4.6-11.5z m-481.3-21.2l19-51 0.3-1.2c1.9-10.3 6.1-12.1 12.3-20.1h297.2c6.3 8.2 10.2 10.3 11.9 20l19.3 52.3 7.1 28.4c-1.6 20.8-26.3 37.2-46.9 37.2H544c-20.6 0-45.4-16.4-47-37.2l7.1-28.4z m13.4 242.6c-23.8 0-43.1-19.5-43.1-43.6s19.3-43.6 43.1-43.6 43.1 19.5 43.1 43.6-19.3 43.6-43.1 43.6z m241-32.2c0 3.4-1.3 6.7-3.7 9.1-2.4 2.4-5.7 3.8-9.1 3.8H624.6c-7.1 0-12.8-5.8-12.8-12.9v-36.5c0-3.4 1.3-6.7 3.7-9.1 2.4-2.4 5.7-3.8 9.1-3.8h121.1c7.1 0 12.9 5.8 12.8 12.9v36.5z m92.4 32.1c-23.8 0-43.2-19.5-43.2-43.6s19.3-43.6 43.2-43.6c23.8 0 43.1 19.5 43.1 43.6 0 24.2-19.3 43.6-43.1 43.6zM392.3 151.2c-39-41.5-94-62.2-165-62.2H45v797h77.7V584.8h87.5c73.7 0 132.3-24.1 175.6-72.3 43.3-48.2 65-110 65-185.6s-19.5-134.1-58.5-175.7z m-23 327c-34.1 35.6-83.5 53.3-148.3 53.3h-98.3V137.1h110c125.1 0 187.6 63.5 187.6 190.5 0.1 64.9-16.9 115.1-51 150.6zM684.8 244c-6.8-6.1-13.5-11.8-20.1-17 9.2-9.3 15.1-18.5 17.5-27.6 2.5-9.1 3.7-22.8 3.7-41.3V97.9h113.9v115.6c0 9-1.9 15.9-5.7 20.6-3.8 4.7-9.1 7.2-15.9 7.7-6.8 0.4-18.1 0.5-34.1 0.4-1.5-8-3.6-16-6-23.8 10.2 0.6 19.1 0.9 26.8 0.9 8 0 12.1-3.8 12.1-11.3v-11.1h-69.6c-1.2 11.4-3.7 20.4-7.4 27.2-3.8 6.6-8.8 13.3-15.2 19.9z m23.8-68.1h68.3v-18.1h-68.1c0 3-0.1 9-0.2 18.1z m68.3-57.1h-68.1v18.1h68.1v-18.1zM822.6 146.6h56.3V91.2h23.2v18.6h61v18.9h-61v18h70.3v19.2H822.6v-19.3z m56.3 23.9h23.2v19.3l10.8-13.9c18.4 7.6 36.7 16.3 54.9 26L956.1 222c-18.1-10.8-36.1-20.1-54-27.9v49.4h-23.2v-73z" p-id="5699" fill="#1296db"></path></svg>