<svg t="1569162381282" class="icon" viewBox="0 0 1024 1024" version="1.1" xmlns="http://www.w3.org/2000/svg" p-id="5579" width="200" height="200"><path d="M353.757 383.929c0 72.247 39.078 135.358 97.243 169.377a188.826 188.826 0 0 0 46.85 5.877c104.28 0 189.12-84.839 189.12-189.12 0-86.725-58.681-159.993-138.42-182.209-107.699 0.7-194.793 88.211-194.793 196.075z" fill="#FCDE9E" p-id="5580"></path><path d="M728.645 370.064c0 84.668-45.837 158.819-113.99 198.98 76.449-26.763 131.284-99.529 131.284-185.114 0-48.933-17.927-93.677-47.567-128.031 19.255 33.687 30.273 72.662 30.273 114.165z" fill="#FCDE9E" p-id="5581"></path><path d="M267.056 370.064c0 117.29 87.947 214.424 201.359 228.925-71.859 8.733-138.332 39.38-190.49 88.494-55.9 52.636-89.394 120.814-96.028 194.273h41.875c10.733-100.69 80.546-185.303 176.376-222.86 34.214-13.409 71.738-20.83 111.079-20.83 149.534 0 272.891 107.051 287.455 243.69h41.875c-6.634-73.459-40.129-141.637-96.028-194.273a330.858 330.858 0 0 0-64.648-47.504c-43.05-24.219-91.433-38.802-142.115-42.584 27.619-4.836 53.559-14.603 76.889-28.351 68.153-40.161 113.99-114.312 113.99-198.98 0-41.502-11.018-80.478-30.273-114.165-39.787-69.61-114.764-116.63-200.522-116.63-127.26 0-230.794 103.534-230.794 230.795z m230.795-189.121c17.556 0 34.558 2.414 50.7 6.911 79.739 22.216 138.42 95.484 138.42 182.209 0 104.28-84.839 189.12-189.12 189.12a188.814 188.814 0 0 1-46.85-5.877c-81.694-20.898-142.27-95.128-142.27-183.243-0.001-104.281 84.838-189.12 189.12-189.12z" fill="#58A80A" p-id="5582"></path><path d="M511.227 638.065c-39.342 0-76.865 7.421-111.079 20.83-82.199 46.633-139.507 128.191-148.782 222.86h547.317c-14.565-136.639-137.923-243.69-287.456-243.69z" fill="#FCDE9E" p-id="5583"></path><path d="M744.529 687.482c55.899 52.636 89.394 120.814 96.028 194.273h27.593c-10.698-109.188-85.293-200.941-188.27-241.777a330.876 330.876 0 0 1 64.649 47.504z" fill="#FCDE9E" p-id="5584"></path><path d="M231.466 625.525C139.739 649.908 71.254 727.422 65.528 820.632h41.767c4.395-56.885 38.148-106.275 87.125-134.967 20.516-36.072 48.687-67.798 82.092-93.265-62.391-3.899-111.964-55.87-111.964-119.227 0-53.795 35.741-99.387 84.72-114.313a255.442 255.442 0 0 1-5.666-41.711c-69.36 17.986-120.729 81.118-120.729 156.024 0 70.467 45.462 130.506 108.593 152.352zM792.642 625.525c63.131-21.845 108.593-81.885 108.593-152.351 0-74.906-51.369-138.038-120.729-156.024a255.21 255.21 0 0 1-5.666 41.711c48.979 14.926 84.72 60.517 84.72 114.313 0 63.356-49.572 115.327-111.963 119.227 33.405 25.466 61.576 57.193 82.092 93.265 48.976 28.693 82.73 78.082 87.125 134.967h41.767c-5.727-93.211-74.212-170.725-165.939-195.108z" fill="#58A80A" p-id="5585"></path></svg>